<mxfile host="app.diagrams.net" agent="Mozilla/5.0 (Windows NT 10.0; Win64; x64) AppleWebKit/537.36 (KHTML, like Gecko) Chrome/139.0.0.0 Safari/537.36 Edg/139.0.0.0" version="28.1.1">
  <diagram name="Page-1" id="aPwJgAsa6reKwbTkg_AX">
    <mxGraphModel dx="1034" dy="666" grid="1" gridSize="10" guides="1" tooltips="1" connect="1" arrows="1" fold="1" page="1" pageScale="1" pageWidth="850" pageHeight="1100" math="0" shadow="0">
      <root>
        <mxCell id="0" />
        <mxCell id="1" parent="0" />
        <mxCell id="_3pJAAWRrlvSb0u5LYym-1" value="Frontend&#xa;Anon JWT" style="whiteSpace=wrap;strokeWidth=2;" vertex="1" parent="1">
          <mxGeometry x="85" y="186" width="210" height="54" as="geometry" />
        </mxCell>
        <mxCell id="_3pJAAWRrlvSb0u5LYym-2" value="GET /quiz" style="whiteSpace=wrap;strokeWidth=2;" vertex="1" parent="1">
          <mxGeometry x="509" y="30" width="131" height="54" as="geometry" />
        </mxCell>
        <mxCell id="_3pJAAWRrlvSb0u5LYym-3" value="POST /quiz (answers)" style="whiteSpace=wrap;strokeWidth=2;" vertex="1" parent="1">
          <mxGeometry x="468" y="134" width="213" height="54" as="geometry" />
        </mxCell>
        <mxCell id="_3pJAAWRrlvSb0u5LYym-4" value="POST /lead (email)" style="whiteSpace=wrap;strokeWidth=2;" vertex="1" parent="1">
          <mxGeometry x="476" y="238" width="197" height="54" as="geometry" />
        </mxCell>
        <mxCell id="_3pJAAWRrlvSb0u5LYym-5" value="Edge Function&#xa;Service Role" style="whiteSpace=wrap;strokeWidth=2;" vertex="1" parent="1">
          <mxGeometry x="85" y="511" width="260" height="78" as="geometry" />
        </mxCell>
        <mxCell id="_3pJAAWRrlvSb0u5LYym-6" value="QUIZ_* tables" style="whiteSpace=wrap;strokeWidth=2;" vertex="1" parent="1">
          <mxGeometry x="496" y="470" width="157" height="54" as="geometry" />
        </mxCell>
        <mxCell id="_3pJAAWRrlvSb0u5LYym-7" value="LEADS" style="whiteSpace=wrap;strokeWidth=2;" vertex="1" parent="1">
          <mxGeometry x="523" y="574" width="104" height="54" as="geometry" />
        </mxCell>
        <mxCell id="_3pJAAWRrlvSb0u5LYym-8" value="Direct DB access: NO (RLS ON)" style="whiteSpace=wrap;strokeWidth=2;" vertex="1" parent="1">
          <mxGeometry x="444" y="342" width="260" height="78" as="geometry" />
        </mxCell>
        <mxCell id="_3pJAAWRrlvSb0u5LYym-9" value="read" style="curved=1;startArrow=none;endArrow=block;exitX=0.66;exitY=0;entryX=0;entryY=0.5;rounded=0;" edge="1" parent="1" source="_3pJAAWRrlvSb0u5LYym-1" target="_3pJAAWRrlvSb0u5LYym-2">
          <mxGeometry relative="1" as="geometry">
            <Array as="points">
              <mxPoint x="382" y="57" />
            </Array>
          </mxGeometry>
        </mxCell>
        <mxCell id="_3pJAAWRrlvSb0u5LYym-10" value="write" style="curved=1;startArrow=none;endArrow=block;exitX=0.98;exitY=0;entryX=0;entryY=0.5;rounded=0;" edge="1" parent="1" source="_3pJAAWRrlvSb0u5LYym-1" target="_3pJAAWRrlvSb0u5LYym-3">
          <mxGeometry relative="1" as="geometry">
            <Array as="points">
              <mxPoint x="382" y="161" />
            </Array>
          </mxGeometry>
        </mxCell>
        <mxCell id="_3pJAAWRrlvSb0u5LYym-11" value="write" style="curved=1;startArrow=none;endArrow=block;exitX=0.98;exitY=1;entryX=0;entryY=0.5;rounded=0;" edge="1" parent="1" source="_3pJAAWRrlvSb0u5LYym-1" target="_3pJAAWRrlvSb0u5LYym-4">
          <mxGeometry relative="1" as="geometry">
            <Array as="points">
              <mxPoint x="382" y="265" />
            </Array>
          </mxGeometry>
        </mxCell>
        <mxCell id="_3pJAAWRrlvSb0u5LYym-12" value="insert" style="curved=1;startArrow=none;endArrow=block;exitX=1;exitY=0.05;entryX=0;entryY=0.5;rounded=0;" edge="1" parent="1" source="_3pJAAWRrlvSb0u5LYym-5" target="_3pJAAWRrlvSb0u5LYym-6">
          <mxGeometry relative="1" as="geometry">
            <Array as="points">
              <mxPoint x="382" y="497" />
            </Array>
          </mxGeometry>
        </mxCell>
        <mxCell id="_3pJAAWRrlvSb0u5LYym-13" value="insert" style="curved=1;startArrow=none;endArrow=block;exitX=1;exitY=0.95;entryX=0;entryY=0.5;rounded=0;" edge="1" parent="1" source="_3pJAAWRrlvSb0u5LYym-5" target="_3pJAAWRrlvSb0u5LYym-7">
          <mxGeometry relative="1" as="geometry">
            <Array as="points">
              <mxPoint x="382" y="601" />
            </Array>
          </mxGeometry>
        </mxCell>
        <mxCell id="_3pJAAWRrlvSb0u5LYym-14" value="restricted" style="curved=1;dashed=1;dashPattern=2 3;startArrow=none;endArrow=none;exitX=0.65;exitY=1;entryX=0;entryY=0.5;rounded=0;" edge="1" parent="1" source="_3pJAAWRrlvSb0u5LYym-1" target="_3pJAAWRrlvSb0u5LYym-8">
          <mxGeometry relative="1" as="geometry">
            <Array as="points">
              <mxPoint x="382" y="381" />
            </Array>
          </mxGeometry>
        </mxCell>
      </root>
    </mxGraphModel>
  </diagram>
</mxfile>
